<?xml version="1.0" encoding="UTF-8"?>
<svg id="a" data-name="Layer 1" xmlns="http://www.w3.org/2000/svg" width="288.726455" height="26.014657" viewBox="0 0 288.726455 26.014657">
  <path d="M287.501808,.326089c.38406,.217393,.681165,.514496,.898549,.898556s.326098,.804353,.326098,1.268124-.108692,.89131-.333329,1.275371c-.224637,.38406-.521743,.68841-.905803,.913049s-.804342,.333335-1.275377,.333335-.884064-.108696-1.268124-.333335-.681165-.528989-.898549-.913049c-.217384-.38406-.333329-.804353-.333329-1.260877s.108692-.876817,.333329-1.260877c.217384-.38406,.521743-.68841,.905803-.913049,.38406-.224639,.811596-.333335,1.282609-.333335s.884064,.108696,1.268124,.326089m-.224637,4.014518c.318844-.188407,.572474-.449278,.760866-.768121,.181161-.326089,.275368-.681163,.275368-1.072471s-.086954-.746382-.268114-1.072471c-.181161-.318843-.427536-.572467-.746381-.753628-.318844-.188407-.673912-.275364-1.072478-.275364-.398544,0-.760866,.094204-1.07971,.28261s-.572474,.442032-.753634,.760874c-.181161,.318843-.275368,.681164-.275368,1.07247s.086954,.753628,.275368,1.07247c.181161,.326089,.43479,.579714,.753634,.760874,.318844,.188407,.673912,.282611,1.072478,.282611,.38406-.007245,.739127-.101449,1.057971-.289856m.086954-1.724649c-.094207,.144928-.239122,.260871-.413051,.333335l.623182,.956528h-.608697l-.557967-.855078h-.637667v.855078h-.608697V1.108702h1.166663c.362321,0,.652174,.086957,.862326,.260871,.210152,.173914,.318844,.413046,.318844,.710149,0,.210146-.043477,.391307-.144937,.536235m-1.065225-.036232c.202899,0,.355068-.043479,.463782-.130435,.108692-.086957,.159422-.210146,.159422-.362321s-.05073-.275364-.159422-.362321-.260861-.130435-.463782-.130435h-.528997v.985513h.528997Z" fill="#003087"/>
  <path d="M70.478705,2.65219c1.891317,1.572474,2.833354,3.739154,2.833354,6.500041s-.942037,4.927567-2.833354,6.507287c-1.891317,1.572474-4.478289,2.362334-7.775414,2.362334h-6.282647v7.702946h-3.630459V.289857h9.920354c3.289876,0,5.884097,.78986,7.768166,2.362334m-2.615959,10.739198c1.210151-.978267,1.818854-2.391319,1.818854-4.231911s-.608697-3.253643-1.818854-4.231911c-1.210151-.978267-2.96379-1.471024-5.268147-1.471024h-6.173955V14.862413h6.173955c2.304357-.000001,4.057995-.492758,5.268147-1.471024m30.819039,9.173969v3.159441h-18.456639V.289857h17.949391V3.449297h-14.318938v7.811644h12.753708v3.086976h-12.753708v8.210197h14.826185v.007245ZM127.566025,.289857V25.724799h-2.97828l-15.260964-18.963887V25.724799h-3.630454V.289857h2.97828l15.260964,18.963887V.289857h3.630454Zm30.985698,0V25.724799h-2.97828l-15.260964-18.963887V25.724799h-3.630454V.289857h2.971027l15.260964,18.963887V.289857h3.637707Zm19.326207,16.637786v8.789911h-3.59423v-8.862376L164.182197,.289857h3.884083l8.137729,13.405882L184.377972,.289857h3.594219l-10.094261,16.637785Zm39.319095,8.797156l-.036223-18.529102-9.195712,15.442127h-1.673922l-9.188458-15.33343V25.724802h-3.485527V.289857h2.978269l10.608773,17.876923L217.668061,.289856h2.978269l.036223,25.43494s-3.485527,0-3.485527,.000003Zm29.224812-6.362358h-13.514573l-2.797108,6.362358h-3.739157L237.885575,.289857h3.594219l11.550799,25.434942h-3.811625l-2.797131-6.362358Zm-1.268124-2.905816l-5.485547-12.463847-5.485547,12.463847h10.971094Zm17.014608,7.869614c-2.050728-1.123195-3.652203-2.673929-4.811635-4.652203-1.159432-1.971026-1.74639-4.195678-1.74639-6.666708s.579705-4.695681,1.74639-6.666708c1.159432-1.978274,2.77537-3.521761,4.833373-4.652203,2.057981-1.123196,4.362338-1.688416,6.90584-1.688416,1.985513,0,3.804372,.333335,5.449302,1.000006s3.050738,1.652184,4.217423,2.963787l-2.362341,2.289869c-1.913066-2.007259-4.297123-3.014512-7.159469-3.014512-1.891306,0-3.594219,.420292-5.123226,1.268124-1.528985,.847831-2.717408,2.014505-3.579734,3.507269-.862326,1.492763-1.289862,3.152194-1.289862,4.992785s.427536,3.507269,1.289862,4.992785c.862326,1.492763,2.050728,2.659436,3.579734,3.507269,1.521753,.84783,3.231898,1.275369,5.123226,1.275369,2.833354,0,5.217433-1.0145,7.159469-3.050743l2.362341,2.289869c-1.159432,1.304355-2.572471,2.304363-4.231908,2.97828-1.659437,.681163-3.485527,1.0145-5.47104,1.0145-2.550755,0-4.847858-.565223-6.891355-1.688418" fill="#003087"/>
  <polygon points="0 .217392 0 25.616104 17.152282 8.463821 8.898607 .217392 0 .217392" fill="#f1c400"/>
  <polygon points="34.304563 .217392 25.398712 .217392 17.152282 8.463821 34.304563 25.616104 34.304563 .217392" fill="#31afdf"/>
  <polygon points="8.898607 .217392 17.152282 8.463821 25.398712 .217392 8.898607 .217392" fill="#14892c"/>
  <path d="M18.565334,22.630576h-2.833351c-.152174,0-.275363-.123188-.275363-.275365v-2.833351c0-.152174,.123189-.275363,.275363-.275363h2.833351c.152174,0,.275363,.123189,.275363,.275363v2.833351c.000001,.152177-.123188,.275365-.275363,.275365" fill="#003087"/>
</svg>