<svg width="515" height="174" viewBox="0 0 515 174" fill="none" xmlns="http://www.w3.org/2000/svg">
<path d="M203.4 56.7C219.5 56.7 229.7 63.4 229.7 73.5C229.7 82.5 220.9 87.8999 211.7 89.5999C216.2 99.2 224.9 108.9 234.5 116.7L234.4 116.9C219.1 112.4 205.2 102.9 198.5 89.5C198.1 89.4 197.8 89.4 197.4 89.3V103.8C197.4 107.4 199 110.1 202.1 111.3V111.5H181.5V111.3C184.7 110 186.2 107.4 186.2 103.8V66C186.2 62.9 184.7 60.3 181.5 59.2V59C189.2 57.7 196.4 56.7 203.4 56.7ZM197.2 87.5999C199.1 87.9999 200.9 88.0999 202.4 88.0999C211.8 88.0999 217.4 83.3 217.4 73.8C217.4 64.7 212.7 58.5999 204.7 58.5999C200.2 58.5999 197.2 60.7999 197.2 65.1999V87.5999Z" fill="#E73C0E"/>
<path d="M256.3 89.6C256.4 85.3 256.4 81.5 256.4 79.4C256.4 77 255.6 75.4 253 75.4C244.3 75.4 247.2 88.6 238.6 88.6C236 88.6 234.1 86.9 234.1 84.4C234.1 78.7 243.9 73.6 253.6 73.6C262.2 73.6 266.6 76.7 266.6 81.9C266.6 86.5 266.2 98.7 266.2 105.4C266.2 107.3 266.9 108.9 269.1 108.9C270.1 108.9 271.3 108.5 272.5 107.7L272.6 108C270.7 110.5 266.7 112.8 263 112.8C259 112.8 255.9 110.6 255.9 106.4C255.9 106.2 255.9 106 255.9 105.7H256C252.8 109.2 247.3 112.7 241.5 112.7C235.9 112.7 231.9 109.2 231.9 104.2C231.9 97.2 240.7 90.7 256.3 89.6ZM248.1 107.6C250.9 107.6 254.1 106.2 256.1 104.4C256.1 100.5 256.2 95.5 256.2 90.7C247.4 92.1 242.6 96 242.6 101.6C242.6 105.6 244.7 107.6 248.1 107.6Z" fill="#E73C0E"/>
<path d="M272.5 126.4C274.7 125.3 275.8 123.2 275.8 120V85.5C275.8 82.8 274.9 80.3 272.1 79.4V79.2C277.2 78.8 282.5 77 286 73.4H286.2V77.4C286.2 78.6 286.1 79.8 286.1 80.9C288.5 78 294.2 73.6 300.5 73.6C308.6 73.6 314.5 80.6 314.5 90.2C314.5 102.2 305.1 112.2 292.9 112.2C290.7 112.2 288.1 111.8 286.3 111.3V120.2C286.3 123.2 287.3 125.5 289.4 126.5V126.7H272.6L272.5 126.4ZM294.1 79.6C291.2 79.6 288.5 80.8 286.1 82.2V105.3C286.1 108.6 288.7 110.5 292.1 110.5C298.5 110.5 303.5 103.2 303.3 93.4C303.2 84.5 299.5 79.6 294.1 79.6Z" fill="#E73C0E"/>
<path d="M317.301 73.7H334.901V73.9C332.701 75.1 331.501 77.5 331.501 80.4V111.9H331.301C328.001 108.3 322.401 106.4 317.301 106.1V105.9C320.101 105 321.101 102.4 321.101 99.8V80.4C321.101 77.4 319.601 75.1 317.301 73.9V73.7ZM326.101 114.9C329.301 114.9 332.301 117.9 332.301 121.2C332.301 124.9 329.301 127.6 326.101 127.6C322.401 127.6 319.701 124.9 319.701 121.2C319.701 117.8 322.401 114.9 326.101 114.9Z" fill="#E73C0E"/>
<path d="M337.5 96.1C337.5 84.1 347 74.1 359.2 74.1C361.8 74.1 364 74.5 365.8 75V66.5C365.8 63.7 364.6 61.2 361.6 60V59.8C366.8 59.5 372.5 57.6 375.9 54H376V103.5C376 106.5 377.3 108.5 379.9 109.6V109.8C374.9 109.7 369.7 111 366.1 112.7H365.8V108.7C365.8 107.4 365.9 106.2 366 105.2L365.9 105.1C363.5 108 357.8 112.4 351.4 112.4C343.5 112.5 337.5 105.6 337.5 96.1ZM365.9 103.9V80.9C365.9 77.6 363.2 75.7 359.9 75.7C353.4 75.7 348.5 82.9 348.6 92.6C348.7 101.6 352.5 106.8 357.8 106.8C360.8 106.8 363.4 105.5 365.9 103.9Z" fill="#E73C0E"/>
<path d="M417.301 57.5999C420.301 57.5999 422.801 56.8 424.201 54.7H424.401L427.601 71L427.401 71.0999C421.601 63.2999 414.601 59.2 406.401 59.2C400.401 59.2 397.801 61.2 397.801 66.5V80.6999H409.701C415.201 80.6999 418.901 78.8999 421.101 74.5999H421.301V89H421.101C418.801 85.4 415.101 83 409.701 83H397.701V102.4C397.701 107.8 400.901 109.7 407.101 109.7C418.001 109.7 424.601 104.4 430.501 96.8L430.801 96.9L426.301 114.3H426.101C424.601 112.3 422.101 111.4 419.101 111.4H381.801V111.2C384.601 110 386.501 107.7 386.501 103.7V65.3C386.501 61.8 385.001 58.9999 381.801 57.7999V57.5999H417.301Z" fill="#E73C0E"/>
<path d="M424.9 120.2C424.9 117.8 426.8 116 429.1 116C434.5 116.1 433.4 122.8 438.3 122.8C441.8 122.8 444 119.4 446.1 114.8L448.4 110L434 82C431.8 77.8 430.3 75.7 428.5 74.9V74.7H448.4V74.9C445.6 76.3 443.7 78.4 445.6 82.2L453.7 98.8L461.5 82.1C463.7 78.4 461.2 76.1 458.9 75V74.8H469.6V75C467.9 75.9 465.7 78.5 463.8 82.5L447.9 115.7C444.7 122.7 440.8 127.4 434.4 127.4C429.2 127.2 424.9 123.9 424.9 120.2Z" fill="#E73C0E"/>
<path d="M484.701 112.5C475.601 112.5 467.301 105.8 467.301 94.6C467.301 83.4 475.601 73.6 487.201 73.6C496.701 73.6 503.801 79.9 503.801 88.3V89.7H477.701C477.801 100.4 483.201 105.1 490.701 105C495.901 105 500.501 102.6 503.401 98.9L503.701 99.1C500.601 106.7 493.801 112.5 484.701 112.5ZM477.601 87.5H493.401C493.301 78.9 490.801 75.6 486.301 75.6C481.701 75.6 478.001 79.1 477.601 87.5Z" fill="#E73C0E"/>
<path opacity="0.65" d="M92.5992 130.8C116.568 130.8 135.999 111.369 135.999 87.3999C135.999 63.4307 116.568 43.9999 92.5992 43.9999C68.6301 43.9999 49.1992 63.4307 49.1992 87.3999C49.1992 111.369 68.6301 130.8 92.5992 130.8Z" stroke="#E73C0E" stroke-width="2" stroke-miterlimit="10"/>
<path opacity="0.65" d="M91.4992 5.3999C69.7992 5.3999 48.9992 13.9999 33.5992 29.3999C18.1992 44.7999 9.69922 65.4999 9.69922 87.1999C9.69922 108.9 18.2992 129.7 33.6992 145.1C48.9992 160.4 69.8992 169.1 91.5992 169.1C113.299 169.1 134.099 160.5 149.499 145.1C164.899 129.7 173.499 108.9 173.499 87.1999C173.499 65.4999 164.899 44.6999 149.499 29.2999C133.999 13.9999 113.199 5.3999 91.4992 5.3999ZM91.4992 39.6999C113.999 39.6999 135.499 48.5999 151.399 64.4999C158.099 71.1999 163.499 78.7999 167.599 87.1999C163.499 95.4999 158.099 103.2 151.399 109.9C135.499 125.8 113.999 134.7 91.4992 134.7C68.9992 134.7 47.4992 125.8 31.5992 109.9C24.8992 103.2 19.4992 95.4999 15.3992 87.1999C19.4992 78.8999 24.8992 71.1999 31.5992 64.4999C47.4992 48.6999 68.9992 39.6999 91.4992 39.6999Z" stroke="#E73C0E" stroke-width="2" stroke-miterlimit="10"/>
<path d="M113.298 87.8999C112.598 88.3999 111.898 87.9999 111.198 87.6999C109.798 87.1999 109.098 87.3999 108.198 88.6999C107.398 89.7999 106.198 90.4999 105.098 91.1999C102.298 92.9999 99.2977 94.4999 96.1977 95.7999C95.6977 95.9999 95.4977 95.9999 95.4977 95.3999C95.5977 94.5999 95.6977 93.8999 95.7977 92.8999C94.9977 94.1999 94.7977 95.3999 94.7977 96.5999C94.6977 98.3999 95.0977 100.1 95.3977 101.8C95.5977 102.8 95.6977 103.9 95.6977 105C95.6977 105.8 95.0977 106.1 94.3977 106.4C93.6977 106.6 93.0977 106.3 92.4977 106C92.3977 106 92.3977 105.8 92.3977 105.7C92.2977 103.3 91.1977 101.2 90.2977 98.9999C89.1977 96.2999 88.0977 93.6999 87.5977 90.7999C87.3977 89.5999 87.4977 88.2999 87.7977 87.0999C87.8977 86.8999 87.8977 86.6999 87.7977 86.4999C86.7977 89.0999 86.9977 91.5999 87.6977 94.0999C87.9977 95.2999 88.3977 96.3999 88.8977 97.4999C89.0977 97.8999 89.0977 98.0999 88.5977 98.2999C84.9977 99.8999 82.0977 102.4 79.4977 105.3C79.0977 105.7 78.6977 106.1 78.2977 106.6C79.9977 102.3 82.0977 98.0999 80.8977 93.0999C80.5977 93.7999 80.9977 94.2999 80.9977 94.7999C80.8977 97.3999 80.1977 99.7999 79.2977 102.1C78.1977 105.2 76.7977 108.1 75.3977 111.1C74.6977 112.7 74.4977 114.3 74.0977 116C73.6977 117.2 73.4977 118.5 72.6977 119.6C72.1977 120.2 71.7977 120.9 70.7977 120.7C69.8977 120.5 69.4977 119.8 69.3977 119C69.1977 117.4 68.9977 115.9 68.7977 114.3C68.5977 112.5 67.6977 111 66.5977 109.6C64.0977 106.2 61.8977 102.6 61.0977 98.3999C59.8977 92.0999 61.3977 86.6999 66.4977 82.5999C69.0977 80.4999 72.0977 79.4999 75.1977 78.5999C77.4977 77.9999 79.7977 77.5999 82.1977 77.1999C83.0977 76.9999 83.9977 77.4999 84.7977 77.8999C85.0977 77.9999 85.2977 78.1999 85.5977 78.2999C84.6977 76.8999 83.1977 76.6999 81.6977 76.5999C80.0977 76.5999 78.5977 76.1999 77.2977 75.0999C76.6977 74.5999 76.2977 74.0999 75.9977 73.3999C76.4977 73.1999 76.8977 73.6999 77.2977 73.3999C74.9977 72.7999 73.7977 71.1999 73.0977 68.8999C74.4977 69.8999 75.9977 70.4999 77.5977 70.6999C76.2977 70.0999 74.9977 69.5999 73.7977 68.7999C72.6977 67.9999 71.6977 67.0999 71.1977 65.7999C70.8977 65.1999 71.1977 64.9999 71.7977 65.0999C73.2977 65.2999 74.7977 65.5999 76.2977 65.7999C78.3977 66.0999 80.5977 66.4999 82.6977 66.7999C82.7977 66.7999 82.9977 66.8999 83.0977 66.9999C83.0977 67.0999 83.1977 67.1999 83.0977 67.1999C82.3977 67.8999 83.0977 68.2999 83.4977 68.6999C84.0977 69.2999 84.5977 69.7999 85.2977 70.3999C85.1977 70.0999 84.8977 69.8999 84.8977 69.5999C84.9977 69.2999 85.2977 69.1999 85.4977 68.9999C85.9977 68.7999 86.1977 68.2999 86.4977 67.9999C87.4977 68.7999 87.6977 69.9999 88.1977 70.9999C89.0977 72.9999 89.8977 74.9999 90.6977 77.0999C90.8977 76.4999 90.6977 76.0999 90.4977 75.6999C90.2977 75.0999 90.5977 74.9999 90.9977 74.8999C91.8977 74.5999 92.8977 74.1999 93.7977 73.8999C94.2977 73.7999 94.4977 73.4999 94.5977 73.0999C95.4977 69.7999 97.1977 69.1999 99.8977 68.8999C101.498 68.6999 102.998 69.1999 104.598 68.8999C105.398 68.7999 105.098 69.4999 104.998 69.7999C104.598 70.9999 103.698 71.6999 102.698 72.2999C101.298 73.0999 99.8977 73.8999 98.2977 74.7999C99.1977 74.7999 99.6977 74.3999 100.298 74.1999C100.898 73.9999 101.398 73.7999 101.998 73.4999C103.398 72.8999 103.398 72.8999 104.398 73.9999C105.498 75.2999 106.498 76.6999 107.598 78.0999C107.998 78.5999 108.298 78.9999 108.698 79.4999C109.498 80.3999 110.498 80.6999 111.698 80.2999C112.498 79.9999 113.398 79.9999 114.198 80.1999C114.898 80.2999 115.298 80.6999 115.298 81.4999C115.298 82.0999 115.498 82.7999 115.098 83.3999C114.798 83.1999 114.998 82.6999 114.498 82.4999C114.898 82.8999 114.798 83.3999 114.898 83.7999C114.898 84.0999 114.998 84.4999 114.698 84.7999C114.498 84.6999 114.398 84.3999 114.198 84.2999C113.798 84.8999 112.998 84.9999 112.598 85.6999C112.698 86.6999 113.098 87.2999 113.298 87.8999Z" fill="#E73C0E"/>
<path d="M60.1984 91.8999C57.9984 92.0999 55.8984 90.8999 55.3984 88.9999C55.6984 89.3999 55.8984 89.5999 56.0984 89.8999C56.2984 90.1999 56.6984 90.2999 57.0984 90.3999C57.0984 89.6999 57.1984 88.9999 57.5984 88.2999C58.0984 87.3999 59.0984 86.9999 59.8984 87.5999C60.7984 88.1999 60.9984 89.3999 60.3984 90.1999C59.8984 90.7999 59.3984 91.1999 58.4984 91.2999C59.0984 91.7999 59.5984 91.7999 60.1984 91.8999Z" fill="#E73C0E"/>
<path d="M82.9983 66.8999C83.8983 66.9999 85.8983 67.5999 86.5983 68.1999C86.8983 68.9999 85.8983 70.2999 85.2983 70.4999C84.6983 70.7999 83.6983 69.4999 83.2983 68.8999C82.9983 68.4999 82.2983 67.3999 82.9983 66.8999Z" fill="#E73C0E"/>
<path d="M114.898 85.2999C114.698 86.1999 114.298 86.8999 113.698 87.4999C112.998 87.2999 112.798 86.6999 113.098 85.8999C113.398 85.0999 113.998 84.8999 114.898 85.2999Z" fill="#E73C0E"/>
<path d="M114.499 84.1998C114.899 84.2998 115.099 84.6998 114.999 85.0998C114.899 85.1998 114.899 85.1998 114.799 85.2998C113.399 85.2998 113.099 85.5998 113.099 86.5998C113.099 86.9998 113.299 87.2998 113.599 87.4998C113.499 87.5998 113.399 87.6998 113.299 87.8998C112.299 86.9998 112.399 85.5998 113.599 84.9998C113.799 84.8998 113.999 84.8998 114.099 84.7998" fill="#E73C0E"/>
<path d="M115.198 84.0999C114.998 84.0999 114.798 83.9999 114.898 83.7999C115.098 83.3999 114.898 83.1999 114.598 82.8999C114.498 82.7999 114.298 82.6999 114.498 82.4999C114.698 82.2999 114.798 82.4999 114.998 82.5999C115.398 82.8999 115.398 83.2999 115.398 83.7999C115.398 83.7999 115.298 83.9999 115.198 84.0999Z" fill="#E73C0E"/>
<path d="M60.0983 89.1998C60.0983 90.1998 59.0983 90.9998 58.0983 90.7998C57.8983 90.7998 57.7983 90.6998 57.6983 90.4998C57.3983 89.8998 57.9983 88.2998 58.6983 87.9998C59.3983 87.7998 60.0983 88.2998 60.0983 89.1998Z" fill="#E73C0E"/>
<path d="M121 75.3999C124.038 75.3999 126.5 72.9375 126.5 69.8999C126.5 66.8623 124.038 64.3999 121 64.3999C117.962 64.3999 115.5 66.8623 115.5 69.8999C115.5 72.9375 117.962 75.3999 121 75.3999Z" fill="#F2E5E0"/>
</svg>
